<svg width="175" height="135" viewBox="0 0 350 269" xmlns="http://www.w3.org/2000/svg">
  <path d="M252.41 182.57a.23.23 0 0 0 .15-.39l-6.4-6.39q-.49-.49-1.09-.15-7.61 4.31-16.18 2.92c-18.41-2.98-32.43-24.58-36.37-41.48a.4.4 0 0 1 .61-.43c8.96 5.64 19.42 8.12 30.89 9.93 12.3 1.95 25.74 9.64 24.57 23.96q-.04.57.4.92 5.12 4 8.64 9.21.28.41.55 0 3.59-5.34 8.83-9.22.4-.3.38-.79c-.51-12.95 9.71-20.85 21.22-23.26q14.97-3.13 17.48-3.69 8.93-1.97 18.35-6.9a.35.35 0 0 1 .5.4c-3.87 14.77-14.2 31.55-28.32 38.27q-13.19 6.28-25.36-.01-.55-.28-.98.15l-6.41 6.41a.31.31 0 0 0 .22.53q1.85 0 10.08.03 5.17.02 7.4 1.48 4.58 2.98 4.66 8.69.09 7.61.09 41.42a.57.56 89.5 0 0 .57.57q22.46-.17 45.73-.06 4.75.03 6.61.94c3.34 1.65 4.32 4.5 4.33 8.3q.06 22 .03 30.56-.02 6.63-4.6 8.7-2.03.91-8.59.92-37.86.04-43.82.04a.28.27 0 0 0-.28.27v43.76q.01 7.34-.98 10.03-2 5.43-7.01 8.04-1.21.63-2.13 1.17-.43.26-.66.7l-4.8 9.14q-.26.5.19.83 8.81 6.43 20.85 7.69c11.57 1.21 17.79 13.92 8.2 22.17q-3.54 3.05-9.44 2.53c-2.73-.25-5.46-2.35-8.16-3.17q-13.47-4.07-24.04-13.27a.47.47 0 0 0-.63.01q-10.71 9.9-24.85 13.43-2.34.58-3.27 1.17c-11.7 7.44-24.97-6.86-16.55-17.64q3.63-4.66 10.25-5.28 11.47-1.07 20.09-6.52a.58.58 0 0 0 .21-.77l-5.81-10.8q-.15-.29-.43-.47-1.12-.74-2.09-1.29-4.85-2.8-6.7-8.09-.91-2.6-.89-9.67.06-21.8.02-43.56a.45.45 0 0 0-.45-.45q-22.55.08-45.23.06-5.11-.01-7.03-1.01c-3.61-1.88-4.26-5.2-4.26-9.26q.01-15.33.04-30.64.01-5.27 3.91-7.41 2.1-1.16 7.4-1.17 31.16-.06 45.27.08a.34.34 0 0 0 .34-.34q.02-13.27.03-35.85.01-7.85 1.21-10.48 2.6-5.68 10.64-5.56 9.9.16 12.87.04m47.11-25.09q3.08-.48.34 1l-23.48 12.62a.68.68 0 0 0 .09 1.24c17.33 6.22 32.3-11.77 38.82-25.51a.19.19 0 0 0-.23-.26q-8.87 3.04-21.99 5.2c-7.92 1.3-17.78 5.91-20.36 14.59q-.31 1.07.65.5 12.32-7.24 26.16-9.38m-82.11.13q13.55 2.24 25.56 9.47.94.57.64-.49c-2.44-8.54-12.06-13.16-19.81-14.51q-12.85-2.25-21.51-5.33a.19.18 87.1 0 0-.23.26c6.25 13.54 20.75 31.33 37.81 25.41a.67.67 0 0 0 .1-1.22l-22.9-12.61q-2.67-1.48.34-.98m39.58 184.06q9.16 0 13.31-.2 9.28-.43 9.24-9.96-.04-11.07 0-53.34 0-.44.44-.44h55.25a1.74 1.74 0 0 0 1.74-1.74v-33.27a1.56 1.56 0 0 0-1.56-1.56h-55.49a.37.36-90 0 1-.36-.37q-.09-32.36-.04-46.52.02-5.09-4.52-5.12-7.83-.05-18-.05t-17.99.05q-4.55.03-4.53 5.12.05 14.16-.04 46.52a.37.36-90 0 1-.36.37l-55.49-.01a1.56 1.56 0 0 0-1.56 1.56l-.01 33.27a1.74 1.74 0 0 0 1.74 1.74l55.25.01q.44 0 .44.44.04 42.27 0 53.34-.04 9.53 9.24 9.96 4.14.2 13.3.2m-3.7 7.37a.49.49 0 0 0-.37-.79l-7.18-.3a.49.49 0 0 0-.43.76l3.37 5.25a.49.49 0 0 0 .8.03zm14.94-.75a.11.11 0 0 0-.1-.15h-6.55q-.26 0-.38.21-9.96 17.07-28.13 22.06c-4.59 1.26-12.01.46-15.18 4.56-2.58 3.32-.67 7.99 3.27 9.16 3.13.93 5.93-1.7 8.98-2.39 17.51-4 30.92-17.16 38.09-33.45m-.47 15q-.35-.25-.63.09l-4.58 5.5q-.3.35.06.65 9.66 8.14 19.1 11.27 6.02 1.99 7.59 2.65 1.99.83 2.95.85c5.49.15 7.94-6.25 4.35-10.13-2.32-2.5-8.34-2.8-11.23-3.34q-9.39-1.74-17.61-7.54"/>
  <path d="M253.12 266.81q0-1.51-.72-.19l-4.59 8.38a2.42 2.4 3.5 0 1-1.24 1.09q-2.39.94-3.99-.26-.91-.68-2.16-3.04-4.51-8.56-9.43-16.83a.5.5 0 0 0-.78-.1l-7.22 7.23a4.12 4.1 25.3 0 1-3.3 1.17l-33.21-3.33a.81.81 0 0 1-.73-.89l.06-.57q.06-.58.64-.6l32.38-1.33a2.19 2.15 21.1 0 0 1.46-.63l7.83-7.84a4.06 4.06 0 0 1 6.39.84l10.01 17.34q.33.57.63-.01l8.43-16.07a3.26 3.17 61.4 0 0 .37-1.33l3.08-54q.02-.3.36-.45l.4-.17a.63.62 75.2 0 1 .87.51l4.4 44.25a11.99 11.9 30.5 0 0 .93 3.54l7.98 18.37q.25.55.86.55l5.17-.07q.45-.01.91-.49.33-.35 4.84-4.88 1.37-1.37 3.53-1.28 17.42.75 41.62 1.75a.59.58 2.8 0 1 .57.62l-.04.77q-.04.7-.74.74l-40.37 2.46a1.94 1.88 19.8 0 0-1.22.55l-5.13 5.13a2.6 2.55-67.1 0 1-1.82.76h-9.13q-2.75 0-3.84-2.52l-6.67-15.32q-.76-1.74-.77.16l-.22 39.59a1.96 1.96 0 0 1-.98 1.68l-2.59 1.5q-.5.28-.5.86v10.01a1.07 1.07 0 0 0 .45.87c3.27 2.33 4.49 2.99 4.14 7.52q-.82 10.69-1.97 21.62a.82.81-12.2 0 1-.41.63q-.23.14-.47.11-.59-.07-.67-.66l-2.92-22.33q-.05-.38-.33-.64c-2-1.91-4.16-2.36-4.17-5.61q-.02-4.4-.11-13.46a2.81 2.76-23.1 0 1 .82-1.99l3.21-3.21a.39.36-25.7 0 0 .1-.25z"/>
  <circle cx="292.51" cy="378.41" r="3.11"/>
  <circle cx="222.81" cy="378.52" r="3.04"/>
</svg>
